<svg width="60" height="62" viewBox="0 0 60 62" fill="none" xmlns="http://www.w3.org/2000/svg">
<path d="M59.0954 24.6562H56.692V24.5289H29.8379V36.7934H46.7008C44.2406 43.9328 37.6301 49.0578 29.8379 49.0578C19.9511 49.0578 11.9352 40.8207 11.9352 30.6611C11.9352 20.5016 19.9511 12.2645 29.8379 12.2645C34.4016 12.2645 38.5535 14.0336 41.7149 16.9234L50.1545 8.25091C44.8255 3.14737 37.6972 0 29.8379 0C13.3599 0 0 13.7285 0 30.6611C0 47.5937 13.3599 61.3223 29.8379 61.3223C46.3159 61.3223 59.6758 47.5937 59.6758 30.6611C59.6758 28.6053 59.4699 26.5985 59.0954 24.6562Z" fill="#FFC107"/>
<path d="M29.8327 61.3226C37.5398 61.3226 44.5428 58.2917 49.8375 53.363L40.6027 45.3328C37.5063 47.7526 33.7228 49.0613 29.8327 49.0581C22.0719 49.0581 15.4822 43.973 12.9997 36.8765L3.26953 44.5801C8.2077 54.5097 18.2362 61.3226 29.8327 61.3226Z" fill="#4CAF50"/>
<path d="M59.0974 24.6561H56.6939V24.5288H29.8398V36.7933H46.7027C45.5259 40.1911 43.4062 43.1603 40.6054 45.3339L40.6098 45.3309L49.8447 53.361C49.1912 53.9712 59.6777 45.9916 59.6777 30.661C59.6777 28.6052 59.4719 26.5984 59.0974 24.6561Z" fill="#1976D2"/>
<path d="M3.4375 16.3899L13.2407 23.7777C15.8933 17.0292 22.3174 12.2645 29.8351 12.2645C34.3988 12.2645 38.5507 14.0336 41.7121 16.9234L50.1517 8.25091C44.8227 3.14737 37.6944 0 29.8351 0C18.3743 0 8.43535 6.64887 3.4375 16.3899Z" fill="#FF3D00"/>
</svg>
